<svg xmlns="http://www.w3.org/2000/svg" width="613.06" height="442.63" viewBox="0 0 613.06 442.63"><text transform="translate(131.9 371.23)" font-size="15" fill="#e28a90" font-family="Nunito-ExtraBold, Nunito" font-weight="800">Housing, <tspan x="66.79" y="0" letter-spacing="-0.08em">T</tspan><tspan x="74.92" y="0">ranspo</tspan><tspan x="123.37" y="0" letter-spacing="0.05em">r</tspan><tspan x="130.12" y="0" letter-spacing="0.02em">t</tspan><tspan x="136.29" y="0">, Human Se</tspan><tspan x="217.11" y="0" letter-spacing="0.03em">r</tspan><tspan x="223.57" y="0" letter-spacing="0.02em">v</tspan><tspan x="231.88" y="0">ices</tspan><tspan letter-spacing="0em"><tspan x="91.09" y="18">L</tspan><tspan x="99.46" y="18" letter-spacing="0em">ess than 5% combined</tspan></tspan><tspan x="197.07" y="36">$133.9M</tspan></text><text transform="translate(121.38 333.23)" font-size="15" fill="#e28a90" font-family="Nunito-ExtraBold, Nunito" font-weight="800">Measu<tspan x="44.95" y="0" letter-spacing="-0.01em">r</tspan><tspan x="50.82" y="0">e Z </tspan><tspan x="76.33" y="0" letter-spacing="0.04em">V</tspan><tspan x="87.87" y="0">iolence </tspan><tspan x="141.21" y="0" letter-spacing="-0.01em">Prev</tspan><tspan x="172.65" y="0">ention</tspan><tspan x="177.49" y="18">$30M</tspan></text><circle cx="395.5" cy="201.63" r="136" fill="none" stroke="#ec2027" stroke-miterlimit="10"/><circle cx="389" cy="303.13" r="6.8" fill="#e28a90"/><circle cx="371.35" cy="270.78" r="1.15" fill="#e28a90"/><circle cx="466.92" cy="197.05" r="64.42" fill="#5d6793"/><line x1="389" y1="360.63" x2="389" y2="315.28" fill="none" stroke="#e28a90" stroke-miterlimit="10" stroke-width="0.38"/><polygon points="390.84 315.82 389 312.63 387.16 315.82 390.84 315.82" fill="#e28a90"/><line x1="460" y1="64.63" x2="460" y2="124.25" fill="none" stroke="#5d6793" stroke-miterlimit="10" stroke-width="0.75"/><polygon points="456.26 123.16 460 129.63 463.74 123.16 456.26 123.16" fill="#5d6793"/><polyline points="339.5 329.29 371.5 329.63 371.5 276.63" fill="none" stroke="#e28a90" stroke-miterlimit="10" stroke-width="0.44"/><polygon points="373.58 277.24 371.5 273.63 369.42 277.24 373.58 277.24" fill="#e28a90"/><text transform="translate(251.52 24.72)" font-size="29" fill="#5d6793" font-family="Nunito-ExtraBold, Nunito" font-weight="800"><tspan letter-spacing="-0.02em">P</tspan><tspan x="18.79" y="0">olice Depa</tspan><tspan x="160.4" y="0" letter-spacing="0.05em">r</tspan><tspan x="173.45" y="0">tment Budg</tspan><tspan x="335.09" y="0" letter-spacing="-0.01em">e</tspan><tspan x="350.26" y="0">t</tspan><tspan x="-68.73" y="34.8">44% </tspan><tspan x="1.83" y="34.8" letter-spacing="0em">o</tspan><tspan x="18.73" y="34.8">f Oakland</tspan><tspan x="151.17" y="34.8" letter-spacing="-0.02em">’</tspan><tspan x="157.99" y="34.8">s General </tspan><tspan x="293.07" y="34.8" letter-spacing="-0.01em">F</tspan><tspan x="309.37" y="34.8">und</tspan><tspan x="242.52" y="69.6">$318.7M</tspan></text></svg>