<svg xmlns="http://www.w3.org/2000/svg" width="2.4in" height="2.4in" viewBox="0 0 173 173"><circle cx="86.69" cy="86.02" r="83.4" fill="#ec2027"/><path d="M97,99.48a1.26,1.26,0,0,1-1.24-1.18c0-.41-.55-10.1,1.05-14.81A14.64,14.64,0,0,1,103.16,75l.77-.4a12.44,12.44,0,0,1,13.59,2.12A40.75,40.75,0,0,1,124,85c2.86,4.91,8.21,11.45,21.56,11.51a24.2,24.2,0,0,0,12-2.83,1.25,1.25,0,0,1,1.16,2.21A26.33,26.33,0,0,1,145.41,99c-10.89,0-18.64-4.21-23.61-12.74a37.41,37.41,0,0,0-6-7.68A9.92,9.92,0,0,0,105,76.81c-.21.1-.41.21-.62.33a12.18,12.18,0,0,0-5.2,7l0,.13c-1.46,4.22-1,13.8-.94,13.9a1.24,1.24,0,0,1-1.18,1.31Z" fill="#fff"/><path d="M135.45,125.48c-1.55.08-14.93.37-17.67,1-1.92.44-5.54-.37-6.73-.74a1.17,1.17,0,0,0-.74,2.22,23.28,23.28,0,0,0,6,1,9.15,9.15,0,0,0,2-.22c2.14-.52,13.08-.89,17.15-1a1.06,1.06,0,0,0,1.11-1.18,1.09,1.09,0,0,0-1.11-1.11" fill="#201c1b"/><path d="M60.92,132.21h0c-6.87-8.72-18.78-6.51-19.29-6.43a1.09,1.09,0,0,0-.89,1.33,1.2,1.2,0,0,0,1.4.89c.15,0,11-2.07,17,5.54a14,14,0,0,0,1.77,1.85,1.14,1.14,0,0,0,.82.3,1.36,1.36,0,0,0,.88-.37,1.16,1.16,0,0,0-.07-1.63A6.45,6.45,0,0,1,60.92,132.21Z" fill="#fff"/><path d="M89.17,102.05a1.18,1.18,0,0,0,2.36,0v-2l-2.36,1.7Z" fill="#fff"/><path d="M99.37,97.9a1.11,1.11,0,0,0,1.11.82.62.62,0,0,0,.37-.08,1.15,1.15,0,0,0,.74-1.47l-.3-1a19.33,19.33,0,0,0-2.29.45Z" fill="#fff"/><path d="M83.55,99.16h0L81.11,98h0a22.14,22.14,0,0,0-5.77-1.33l-2.66-.08a30.29,30.29,0,0,0-6.28,1h0L63,98.42v.08c-.29.07-.66.22-1,.29l-3.47,1c-2.44.74-4.59,1.18-6.36,1.55a26.1,26.1,0,0,1-3.92.59c-2.81.08-4.14.37-6.36.37a1.19,1.19,0,0,0,0,2.37c8.8,0,15-1.85,20.48-3.55,4-1.18,7.4-2.22,10.95-2.22,7.39,0,11.09,3.7,11.16,3.77L87,105.15a1.2,1.2,0,0,0,.81.37,1.22,1.22,0,0,0,.82-.37,1.17,1.17,0,0,0,0-1.63L88,103v-.3l-2.36-2A9.34,9.34,0,0,0,83.55,99.16Z" fill="#fff"/><path d="M110.61,125.19h0l-.3-.3c-.74-.74-9.09-8.94-15.38-15.16a1.15,1.15,0,1,0-1.62,1.63c6.28,6.21,14.64,14.42,15.38,15.16l.37.29c1.18,1.19,4.43,4.22,4.43,6.58a2,2,0,0,1-.66,1.48,3.07,3.07,0,0,1-2.07.89c-1.63,0-3.11-1.4-3.48-1.7a20,20,0,0,0-1.92-1.78,3.6,3.6,0,0,1-.52-.51l-5.1-5-1.63,1.63,5.1,5a6.54,6.54,0,0,0,.67.6c1.11,1,3.62,3.17,3.7,4.88a1.42,1.42,0,0,1-.52,1.1,2.08,2.08,0,0,1-1.7.74,4.91,4.91,0,0,1-2.81-1.62h0a6,6,0,0,0-1.11-1.26l-6.06-6-1.63,1.63,6.06,6a5.67,5.67,0,0,1,1.78,2.66,2,2,0,0,1-.74,2.14c-1.18,1.11-2.88.3-3.48,0a8.39,8.39,0,0,0-1-1.33c-1.41-1.4-5-5.4-5.1-5.47a1.16,1.16,0,0,0-1.63-.07,1.09,1.09,0,0,0-.07,1.62c.14.15,3.69,4.14,5.17,5.55a3.57,3.57,0,0,1,1.11,2.07,1.93,1.93,0,0,1-.66,1.92,1.21,1.21,0,0,1-.89.3c-.81,0-2.66-.6-6.21-4.14a1.15,1.15,0,0,0-1.63,1.62c3.18,3.26,5.77,4.88,7.84,4.88h0a3.52,3.52,0,0,0,2.51-1A4.86,4.86,0,0,0,98.19,147a6.8,6.8,0,0,0,1.18.15,4.25,4.25,0,0,0,3.11-1.26,4.73,4.73,0,0,0,1.47-3,6,6,0,0,0,1.26.29h.22a4.8,4.8,0,0,0,3.26-1.4,3.87,3.87,0,0,0,1.18-2.81,3.46,3.46,0,0,0-.15-.89,3.62,3.62,0,0,0,1,.08h.08a5.19,5.19,0,0,0,3.69-1.56,4.23,4.23,0,0,0,1.33-3.1C115.71,130.07,112.09,126.67,110.61,125.19Z" fill="#fff"/><path d="M94.71,98.05s.08,0,.08-.07S94.79,98.05,94.71,98.05Z" fill="#201c1b"/><path d="M117.71,98.05a.07.07,0,0,1,.07.08C117.78,98.05,117.78,98.05,117.71,98.05Z" fill="#201c1b"/><path d="M86.28,138.64h0a4.47,4.47,0,0,0-1,.15,6.1,6.1,0,0,0,.74-2.73A4.29,4.29,0,0,0,84.66,133a3.81,3.81,0,0,0-2.59-1,5.52,5.52,0,0,0-1.85.36,3.56,3.56,0,0,0-1.4-2.8c-1.85-1.71-4-1.19-5.92,0v-.3a3.11,3.11,0,0,0-1-2.37,2.93,2.93,0,0,0-2.07-.88c-2,0-3.85,1.84-5.33,3.32l-.29.3a23.19,23.19,0,0,0-3.33,4.07c-1.77,2.95-1.11,4.58-.15,5.47a3.11,3.11,0,0,0,2.29,1,3.57,3.57,0,0,0,1.19-.22,3.65,3.65,0,0,0,.88,4,4.49,4.49,0,0,0,3,1.26,4.18,4.18,0,0,0,1.33-.23,3.74,3.74,0,0,0,1,3.33,3.87,3.87,0,0,0,2.74,1.18,6,6,0,0,0,3.4-1.25,3.68,3.68,0,0,0,.74,3.25,2.79,2.79,0,0,0,2.22,1h0c3.4,0,8.13-5.17,9.46-8.5,1-2.37.37-3.62-.37-4.29A3.89,3.89,0,0,0,86.28,138.64ZM63,137.83a.82.82,0,0,1-.66-.3h0c-.59-.59.07-1.92.52-2.66a20.09,20.09,0,0,1,2.95-3.62l.3-.3c1-1,2.66-2.58,3.62-2.58a.62.62,0,0,1,.52.22,1,1,0,0,1,.3.74c0,1.4-1.71,3.77-3.48,5.47l-.44.44C65.8,136.06,64.1,137.83,63,137.83Zm3.63,4.44h0c-1.33-1.33,1.18-5.11,4.29-8.14s5-4,6.21-2.88c.44.37,1.33,1.26-.37,3.4-.67.59-1.26,1.18-1.93,1.78a28.72,28.72,0,0,0-4.36,5.32C69.57,142.49,68,143.52,66.62,142.27Zm11.53,1.4c-1.33,1.33-3.47,3.55-5.1,3.55a1.5,1.5,0,0,1-1-.44h0c-1.47-1.48,1.26-5.4,4.51-8.65.52-.52,1.19-1.11,1.85-1.78l.08-.07h0c1.18-1,2.51-1.92,3.47-1.92a1.38,1.38,0,0,1,.89.36,2,2,0,0,1,.66,1.48c0,2.3-3.18,5.4-4.51,6.66l-.29.29ZM86.8,143c-1.26,3.1-5.4,7.09-7.32,7.09A.63.63,0,0,1,79,150c-.89-1,.59-3.85,3.62-6.81C84,141.82,85.4,141,86.28,141a.94.94,0,0,1,.74.29c.15.15.15.74-.22,1.71Z" fill="#201c1b"/><path d="M91.12,102.29a1.24,1.24,0,0,1-1.24-1.2c0-.56-.43-13.74,1.15-20,.08-.32,2.07-8.16,8.67-11.75A21.4,21.4,0,0,1,113,67.3c1,.09,9.41,1.12,15,11.36l0,.09a22.1,22.1,0,0,0,10.3,10.39c.09,0,8.22,3.54,19-1.52a1.25,1.25,0,1,1,1.07,2.25c-11.87,5.59-20.7,1.72-21.07,1.56A24.28,24.28,0,0,1,125.79,79.8c-5.16-9.45-12.92-10-13-10l-.18,0a19.16,19.16,0,0,0-11.72,1.79c-5.61,3.06-7.43,10.1-7.44,10.17-1.5,5.9-1.08,19.15-1.08,19.29a1.25,1.25,0,0,1-1.21,1.28Z" fill="#fff"/><path d="M135.45,102.56h-.15c-4.21,0-11.53-.51-13.53-2.07a25.19,25.19,0,0,0-4-2.44.07.07,0,0,1-.07-.07,21.42,21.42,0,0,0-9.39-2.29A36.47,36.47,0,0,0,95.6,97.61c-.3.07-.52.22-.81.29a.08.08,0,0,0-.08.08,11.27,11.27,0,0,0-2.81,1.7,1.8,1.8,0,0,0-.44.37h0c-.37.29-.81.59-1.33,1-4.51,3.18-12.79,9.17-12.87,15.38-.07.66-.44,6.28,2.15,9.09a5,5,0,0,0,3.77,1.63,4.28,4.28,0,0,0,3.18-1.26c1.7-1.77,1.55-4.8,1.4-7.32a9.75,9.75,0,0,1,0-2.58c1.33-1.71,4.29-4.29,6.36-4.29a1.19,1.19,0,0,0,0-2.37c-3.33,0-7,3.77-8.21,5.18-.66.81-.59,2.21-.51,4.14s.22,4.58-.74,5.62a1.87,1.87,0,0,1-1.48.51,2.74,2.74,0,0,1-2-.81c-1.62-1.77-1.7-5.91-1.55-7.39v-.08h0c0-5,8.06-10.79,11.9-13.53.82-.59,1.48-1,1.93-1.4,2.66-2.15,8.2-3.48,14.86-3.48a20.87,20.87,0,0,1,12.05,4.29c3.32,2.44,13.9,2.51,15.08,2.51a1.15,1.15,0,1,0,0-2.29Z" fill="#201c1b"/><path d="M35.39,86.72c-5.79,0-7.89-2.12-9.19-3.43-.16-.17-.32-.32-.47-.46L24.85,82a28.15,28.15,0,0,0-2.55-2.28c-1.93-1-3.73-1.71-6.32-.39a1.25,1.25,0,1,1-1.14-2.22c3.64-1.86,6.35-.78,8.59.39a18,18,0,0,1,3.15,2.7c.35.33.63.61.81.77s.38.36.59.57c1.23,1.24,2.92,2.95,8.62,2.66,8.63-.42,16.44-9,16.52-9,5.65-6.62,11.79-6.46,12.78-6.39,8.77-.57,13.32,8.13,14.5,12.84a1.25,1.25,0,1,1-2.42.6,21.53,21.53,0,0,0-2.71-5.88C72.81,72.69,69.69,71,66,71.26h-.11l-.12,0c-.22,0-5.6-.49-10.75,5.54-.37.41-8.63,9.43-18.28,9.9Z" fill="#fff"/><path d="M85.62,102.89a1.25,1.25,0,0,1-1.25-1.25l0-31c0-.52-1-14.43-13.83-18.4l-.11,0A24.73,24.73,0,0,0,52.51,53c-11.65,5.08-18.31.39-19.12-.23-.68-.43-4.7-3.3-5.39-10.49A1.25,1.25,0,1,1,30.48,42c.62,6.43,4.22,8.61,4.25,8.63l.17.11c.23.19,5.91,4.6,16.62-.07a26.88,26.88,0,0,1,19.77-.77c14.43,4.52,15.53,20.54,15.54,20.7l0,31.05a1.26,1.26,0,0,1-1.25,1.25Z" fill="#fff"/><path d="M79.19,98.48a1.25,1.25,0,0,1-1.25-1.25V70.74c-.1-.78-1.3-9-7.1-11.19l-.17-.07a19.83,19.83,0,0,0-9.38-2.29,27.06,27.06,0,0,0-9.54,2.74,22.66,22.66,0,0,1-9.22,2.44c-5.65.33-13.85-.61-19.08-12.69a1.25,1.25,0,1,1,2.29-1c4.55,10.52,11.32,11.51,16.7,11.19a20.47,20.47,0,0,0,8.14-2.15,29.07,29.07,0,0,1,10.57-3A22,22,0,0,1,71.8,57.25c7.43,2.87,8.58,12.85,8.63,13.28v26.7A1.25,1.25,0,0,1,79.19,98.48Z" fill="#fff"/><path d="M85.58,84.18h0a1.26,1.26,0,0,1-1.22-1.28c0-.27.2-6.76,2.92-11.75l.07-.11.43-.64c1.57-2.36,3.52-5.29,9.44-7.2,4.82-1.59,7.43-5.63,7.16-11.07s-4.54-9.05-5.94-10.19c-.22-.18-.44-.34-.67-.5a9.54,9.54,0,0,1-1.46-1.22c-10.14-10.93-.52-25.39-.42-25.54a1.25,1.25,0,1,1,2.06,1.41,26.25,26.25,0,0,0-3.28,7.78c-1.35,5.78-.19,10.71,3.47,14.65a7.26,7.26,0,0,0,1.09.9c.27.19.53.38.79.59,1.61,1.32,6.52,5.32,6.85,12s-3,11.63-8.87,13.57c-5.11,1.65-6.65,4-8.14,6.21l-.42.61C87,76.84,86.83,82.9,86.83,83A1.25,1.25,0,0,1,85.58,84.18Z" fill="#fff"/><path d="M102.13,70.85a1.25,1.25,0,0,1-.41-2.43,15.35,15.35,0,0,0,9.37-11,21.77,21.77,0,0,0-1.23-11.59,21.53,21.53,0,0,0-7.73-9.13,10.09,10.09,0,0,1-4-6.23c-1.13-6.9,3.4-14.08,3.59-14.39a1.25,1.25,0,0,1,2.1,1.35c0,.06-4.21,6.69-3.23,12.63a7.53,7.53,0,0,0,2.89,4.54,23.86,23.86,0,0,1,8.67,10.25,23.77,23.77,0,0,1,1.38,13.08,17.85,17.85,0,0,1-11,12.87A1.47,1.47,0,0,1,102.13,70.85Z" fill="#fff"/><path d="M136.57,59c-.53,0-1,0-1.43,0a16.47,16.47,0,0,1-8.89-3.32c-2.34-1.7-4-2.3-4.85-2.3a9.41,9.41,0,0,0-7.85,4.61,1.25,1.25,0,0,1-2.19-1.21c.14-.24,3.32-5.89,10-5.89,1.61,0,3.84,1,6.28,2.75a13.92,13.92,0,0,0,7.64,2.87c3.62.25,10.06-.29,12.61-6.71a1.25,1.25,0,0,1,2.32.92C147.38,57.86,140.52,59,136.57,59Z" fill="#fff"/><path d="M136.66,52.49c-2.9,0-5.83-2.19-5.95-2.29a20.18,20.18,0,0,0-6.84-3.57,10.2,10.2,0,0,0-4.65-.05c-4.28,1.1-5.47,3.14-5.48,3.17a1.25,1.25,0,0,1-2.2-1.17c.16-.31,1.74-3,7-4.4a12.43,12.43,0,0,1,5.86,0,22.34,22.34,0,0,1,7.84,4.05A9,9,0,0,0,136.66,50a5.94,5.94,0,0,0,4.21-1.28c1.32-.89,2.7-3.41,3.12-4.3a1.24,1.24,0,0,1,1.66-.6,1.25,1.25,0,0,1,.6,1.66c-.18.39-1.86,3.88-4,5.31A8.36,8.36,0,0,1,136.66,52.49Z" fill="#fff"/><path d="M152.43,90.76a1.25,1.25,0,0,1-1.18-.86,25.37,25.37,0,0,1-.65-10.82,13.62,13.62,0,0,1,4.08-8A1.24,1.24,0,1,1,156.3,73a11.46,11.46,0,0,0-3.24,6.46,23.5,23.5,0,0,0,.56,9.66,1.26,1.26,0,0,1-.8,1.57A1.32,1.32,0,0,1,152.43,90.76Z" fill="#fff"/><path d="M147.17,91.94a1.26,1.26,0,0,1-1.2-.89,33.82,33.82,0,0,1-.25-14.44c1.63-8.79,6.92-12.29,7.14-12.43a1.25,1.25,0,1,1,1.36,2.09s-4.62,3.13-6.05,10.79a31.64,31.64,0,0,0,.2,13.28,1.26,1.26,0,0,1-.85,1.55A1.34,1.34,0,0,1,147.17,91.94Z" fill="#fff"/><path d="M75.84,54.32A1.23,1.23,0,0,1,75,54a1.25,1.25,0,0,1-.09-1.76,16.18,16.18,0,0,0,3.35-9.32V42.8c0-.16,2.35-17.08-5.26-26.64A1.25,1.25,0,0,1,75,14.61c8.14,10.21,6,27.16,5.79,28.49a18.43,18.43,0,0,1-4,10.81A1.23,1.23,0,0,1,75.84,54.32Z" fill="#fff"/><path d="M80.83,58.34A1.29,1.29,0,0,1,80,58a1.25,1.25,0,0,1,0-1.76h0a18,18,0,0,0,4-8.32C86.79,32.79,82.57,20,79,15.15a1.25,1.25,0,1,1,2-1.46c3.79,5.23,8.34,18.79,5.3,34.69A20.35,20.35,0,0,1,81.73,58,1.27,1.27,0,0,1,80.83,58.34Z" fill="#fff"/><path d="M79.19,40.09a48.23,48.23,0,0,1-12.35-1.92c-8.7-2.58-14.59-7.38-17.05-13.91a1.25,1.25,0,1,1,2.33-.88C57.41,37.42,79,37.6,79.19,37.6a1.25,1.25,0,0,1,0,2.49Z" fill="#fff"/><path d="M86.57,39.45h0a1.25,1.25,0,1,1,0-2.49h0c.12,0,5.22,0,8.16-1.35a1.25,1.25,0,1,1,1,2.27C92.37,39.42,87,39.45,86.57,39.45Z" fill="#fff"/><path d="M86.53,45.7h-.46a1.25,1.25,0,1,1,.06-2.5c.09,0,8,.17,13.23-2.62a1.25,1.25,0,1,1,1.17,2.2C95.45,45.51,88.41,45.7,86.53,45.7Z" fill="#fff"/><path d="M100.94,35a1.25,1.25,0,0,1-.61-2.34c.09,0,9-5.15,10.44-13.53a1.26,1.26,0,0,1,1.45-1,1.24,1.24,0,0,1,1,1.44c-1.66,9.56-11.27,15.05-11.68,15.28A1.21,1.21,0,0,1,100.94,35Z" fill="#fff"/><path d="M105.76,38.85a1.25,1.25,0,0,1-.49-2.4,22,22,0,0,0,11.34-14.6,1.25,1.25,0,0,1,2.43.59,24.11,24.11,0,0,1-12.8,16.31A1.18,1.18,0,0,1,105.76,38.85Z" fill="#fff"/><path d="M120.44,45.7a1.25,1.25,0,0,1-1.24-1.12c0-.46-1.11-11.29,4.24-19.11a1.25,1.25,0,1,1,2.06,1.4c-4.82,7.06-3.83,17.35-3.82,17.45a1.24,1.24,0,0,1-1.11,1.37Z" fill="#fff"/><path d="M127,47.32a1.24,1.24,0,0,1-1.24-1.12c0-.42-1-10.5,3.48-17a1.25,1.25,0,0,1,2.06,1.42c-4,5.77-3.07,15.27-3.06,15.37a1.25,1.25,0,0,1-1.11,1.37Z" fill="#fff"/><path d="M146,78.1c-3.27,0-13.15-.47-18.42-5.87-6.15-6.31-7.32-19.5-7.37-20.06a1.25,1.25,0,1,1,2.49-.21c0,.13,1.14,12.86,6.67,18.53s17.45,5.1,17.57,5.1a1.25,1.25,0,0,1,.12,2.49C146.92,78.08,146.55,78.1,146,78.1Z" fill="#fff"/><path d="M145.42,72.42c-3.11,0-8.09-.44-11.71-2.91-5.31-3.63-6-12-6-12.33a1.25,1.25,0,0,1,2.49-.18c0,.07.61,7.51,4.93,10.45s11.38,2.5,12.74,2.37a1.25,1.25,0,0,1,.23,2.49C147.66,72.35,146.69,72.42,145.42,72.42Z" fill="#fff"/><path d="M46.37,82.39a1.26,1.26,0,0,1-1.17-.82C45,81.14,41.26,70.8,43,61.84a1.25,1.25,0,0,1,2.45.47c-1.61,8.27,2,18.29,2.08,18.4a1.24,1.24,0,0,1-.74,1.6A1.31,1.31,0,0,1,46.37,82.39Z" fill="#fff"/><path d="M51.77,79.18a1.25,1.25,0,0,1-1.2-.92c-.12-.44-2.89-10.77-.6-18.77a1.24,1.24,0,1,1,2.39.68C50.27,67.51,53,77.5,53,77.6a1.24,1.24,0,0,1-.88,1.53A1.26,1.26,0,0,1,51.77,79.18Z" fill="#fff"/><path d="M45.55,54.32h-.16a1.23,1.23,0,0,1-1.08-1.39c.06-.45,1.5-11.07,8.76-15.76a1.25,1.25,0,1,1,1.36,2.09c-6.3,4.08-7.63,13.89-7.65,14A1.24,1.24,0,0,1,45.55,54.32Z" fill="#fff"/><path d="M52,53.05a1.55,1.55,0,0,1-.31,0,1.25,1.25,0,0,1-.9-1.52A24.35,24.35,0,0,1,57.4,40.64a1.25,1.25,0,0,1,1.69,1.84,22.26,22.26,0,0,0-5.87,9.63A1.24,1.24,0,0,1,52,53.05Z" fill="#fff"/><path d="M24.2,80.46a1.24,1.24,0,0,1-1.13-1.78c0-.07,2.82-7-5.26-14.15a1.25,1.25,0,1,1,1.66-1.87c8.08,7.17,7,14.77,5.85,17.09A1.24,1.24,0,0,1,24.2,80.46Z" fill="#fff"/><path d="M29.61,84.61a1.19,1.19,0,0,1-.45-.08,1.26,1.26,0,0,1-.71-1.62c.23-.59,5.24-14.07-8.38-24.37a1.25,1.25,0,0,1,1.5-2C36.75,68,30.83,83.67,30.77,83.82A1.24,1.24,0,0,1,29.61,84.61Z" fill="#fff"/><path d="M121,73.31a1.24,1.24,0,0,1-.56-.13,1.26,1.26,0,0,1-.56-1.67c.06-.11,1.41-2.74,5.62-4.14a1.25,1.25,0,0,1,1.58.79,1.26,1.26,0,0,1-.79,1.58c-3.19,1.06-4.17,2.86-4.17,2.88A1.25,1.25,0,0,1,121,73.31Z" fill="#fff"/><path d="M125.91,77a1.24,1.24,0,0,1-1.24-1.25c0-.75.52-2.65,5.34-4a1.25,1.25,0,0,1,.68,2.4c-2.87.82-3.46,1.66-3.54,1.82A1.26,1.26,0,0,1,125.91,77Zm1.25-1.24Zm0,0Zm0,0h0Zm0,0Z" fill="#fff"/><path d="M58.85,32.83a1.22,1.22,0,0,1-.83-.32,1.26,1.26,0,0,1-.1-1.76h0c0-.05,4.82-5.5,2.29-10.92a1.25,1.25,0,1,1,2.26-1.06C65.7,25.71,60,32.15,59.78,32.42A1.24,1.24,0,0,1,58.85,32.83Z" fill="#fff"/><path d="M64.4,36.08a1.28,1.28,0,0,1-.85-.33A1.25,1.25,0,0,1,63.49,34a15.14,15.14,0,0,0,2.34-16,1.25,1.25,0,0,1,2.29-1,17.62,17.62,0,0,1-2.8,18.68A1.24,1.24,0,0,1,64.4,36.08Z" fill="#fff"/><path d="M73.27,98.4A1.25,1.25,0,0,1,72,97.15V85.23a9.35,9.35,0,0,0-2-5.86c-.81-1-3.31-2.14-4.85-1.65l-.15,0s-3,.7-8.49,6c-6.94,6.77-14.78,9.74-24,9.1a25.22,25.22,0,0,1-3.21-.59,14.22,14.22,0,0,1-7.51-4.74A8.09,8.09,0,0,0,18.76,85a3.56,3.56,0,0,0-2.7-.12,1.23,1.23,0,0,1-1.71-.36,1.26,1.26,0,0,1,.37-1.74c.18-.12,1.84-1.14,4.83-.15a10.1,10.1,0,0,1,4.19,3.26A11.77,11.77,0,0,0,30,89.86a23.63,23.63,0,0,0,2.83.52c8.42.59,15.64-2.15,22-8.39,5.66-5.53,9-6.52,9.69-6.67,2.73-.82,6.18.88,7.48,2.48a11.84,11.84,0,0,1,2.53,7.43V97.15A1.25,1.25,0,0,1,73.27,98.4Z" fill="#fff"/><path d="M74.34,45.76c-5,0-13.24-.89-19.79-5.91-8.19-6.3-10.49-12-10.58-12.23a1.25,1.25,0,1,1,2.32-.91c0,.05,2.19,5.33,9.78,11.16,9.08,7,22.26,5.18,22.39,5.16a1.25,1.25,0,1,1,.35,2.47A33.67,33.67,0,0,1,74.34,45.76Z" fill="#fff"/></svg>